<svg width="133" height="67" viewBox="0 0 133 67" fill="none" xmlns="http://www.w3.org/2000/svg">
<path d="M71.6602 0.5H71.3392C60.5696 0.5 51.8392 9.23044 51.8392 20V28.8928H71.6602C76.9069 28.8928 81.1602 24.6395 81.1602 19.3928V10C81.1602 4.75329 76.9069 0.5 71.6602 0.5Z" fill="black" stroke="white"/>
<path d="M12.9185 44.3928H7.76225V29.8474H12.9611C14.4242 29.8474 15.6837 30.1386 16.7395 30.7209C17.7954 31.2986 18.6074 32.1296 19.1756 33.2138C19.7485 34.2981 20.035 35.5955 20.035 37.1059C20.035 38.621 19.7485 39.9231 19.1756 41.0121C18.6074 42.1012 17.7907 42.9369 16.7253 43.5192C15.6647 44.1016 14.3958 44.3928 12.9185 44.3928ZM10.8375 41.7579H12.7907C13.6998 41.7579 14.4644 41.5969 15.0847 41.2749C15.7097 40.9482 16.1784 40.444 16.4909 39.7621C16.8082 39.0756 16.9668 38.1902 16.9668 37.1059C16.9668 36.0311 16.8082 35.1528 16.4909 34.4709C16.1784 33.7891 15.7121 33.2872 15.0918 32.9653C14.4715 32.6433 13.7069 32.4823 12.7978 32.4823H10.8375V41.7579ZM24.7917 29.8474V31.3815C24.7917 31.8171 24.7065 32.2621 24.536 32.7167C24.3703 33.1665 24.1478 33.5926 23.8684 33.9951C23.5891 34.3928 23.2837 34.7314 22.9522 35.0107L21.617 34.2224C21.8538 33.8483 22.0621 33.434 22.242 32.9795C22.4267 32.5249 22.519 31.997 22.519 31.3957V29.8474H24.7917ZM31.4927 29.8474H35.2853L39.291 39.6201H39.4615L43.4672 29.8474H47.2598V44.3928H44.2768V34.9255H44.1561L40.3919 44.3218H38.3606L34.5964 34.89H34.4757V44.3928H31.4927V29.8474ZM52.8475 44.5988C52.1515 44.5988 51.5312 44.478 50.9867 44.2366C50.4422 43.9904 50.0113 43.6281 49.6941 43.1499C49.3816 42.667 49.2253 42.0656 49.2253 41.3459C49.2253 40.7399 49.3366 40.2309 49.5591 39.819C49.7817 39.407 50.0847 39.0756 50.4682 38.8246C50.8517 38.5737 51.2873 38.3843 51.775 38.2565C52.2675 38.1286 52.7836 38.0387 53.3233 37.9866C53.9578 37.9203 54.4692 37.8587 54.8574 37.8019C55.2457 37.7404 55.5274 37.6504 55.7026 37.532C55.8778 37.4137 55.9654 37.2385 55.9654 37.0065V36.9638C55.9654 36.514 55.8233 36.166 55.5392 35.9198C55.2599 35.6736 54.8622 35.5505 54.3461 35.5505C53.8016 35.5505 53.3683 35.6712 53.0463 35.9127C52.7244 36.1495 52.5113 36.4477 52.4071 36.8076L49.6088 36.5803C49.7509 35.9174 50.0302 35.3445 50.4469 34.8616C50.8636 34.3739 51.401 33.9998 52.0591 33.7394C52.722 33.4743 53.4891 33.3417 54.3603 33.3417C54.9663 33.3417 55.5463 33.4127 56.1003 33.5548C56.659 33.6968 57.1538 33.917 57.5847 34.2153C58.0203 34.5136 58.3636 34.8971 58.6145 35.3658C58.8655 35.8298 58.9909 36.3862 58.9909 37.0349V44.3928H56.1216V42.88H56.0364C55.8612 43.2209 55.6268 43.5216 55.3333 43.782C55.0397 44.0377 54.687 44.2389 54.275 44.3857C53.8631 44.5278 53.3873 44.5988 52.8475 44.5988ZM53.714 42.5107C54.159 42.5107 54.552 42.4231 54.8929 42.2479C55.2338 42.068 55.5014 41.8265 55.6955 41.5235C55.8896 41.2205 55.9867 40.8772 55.9867 40.4937V39.336C55.892 39.3976 55.7618 39.4544 55.5961 39.5065C55.4351 39.5538 55.2528 39.5988 55.0492 39.6414C54.8456 39.6793 54.642 39.7148 54.4384 39.7479C54.2348 39.7763 54.0501 39.8024 53.8844 39.8261C53.5293 39.8781 53.2192 39.961 52.954 40.0746C52.6889 40.1883 52.4829 40.3422 52.3361 40.5363C52.1893 40.7257 52.1159 40.9624 52.1159 41.2465C52.1159 41.6584 52.2651 41.9733 52.5634 42.1911C52.8664 42.4042 53.2499 42.5107 53.714 42.5107ZM61.3382 44.3928V33.4837H64.2218V35.4084H64.3496C64.5769 34.7692 64.9557 34.265 65.486 33.8957C66.0163 33.5263 66.6507 33.3417 67.3894 33.3417C68.1375 33.3417 68.7743 33.5287 69.2999 33.9028C69.8255 34.2721 70.1758 34.774 70.351 35.4084H70.4647C70.6872 34.7834 71.0897 34.2839 71.6721 33.9099C72.2592 33.5311 72.9528 33.3417 73.753 33.3417C74.771 33.3417 75.5972 33.666 76.2317 34.3147C76.8709 34.9586 77.1905 35.8725 77.1905 37.0562V44.3928H74.1721V37.6528C74.1721 37.0467 74.0111 36.5922 73.6891 36.2891C73.3671 35.9861 72.9647 35.8346 72.4817 35.8346C71.9325 35.8346 71.504 36.0098 71.1962 36.3602C70.8884 36.7058 70.7346 37.1627 70.7346 37.7309V44.3928H67.8013V37.5888C67.8013 37.0538 67.6474 36.6277 67.3397 36.3104C67.0366 35.9932 66.6365 35.8346 66.1394 35.8346C65.8032 35.8346 65.5002 35.9198 65.2303 36.0903C64.9651 36.256 64.7544 36.4904 64.5982 36.7934C64.4419 37.0917 64.3638 37.4421 64.3638 37.8445V44.3928H61.3382ZM79.5804 44.3928V33.4837H82.464V35.4084H82.5918C82.8191 34.7692 83.1979 34.265 83.7282 33.8957C84.2585 33.5263 84.8929 33.3417 85.6316 33.3417C86.3797 33.3417 87.0165 33.5287 87.5421 33.9028C88.0676 34.2721 88.418 34.774 88.5932 35.4084H88.7069C88.9294 34.7834 89.3319 34.2839 89.9142 33.9099C90.5014 33.5311 91.195 33.3417 91.9952 33.3417C93.0132 33.3417 93.8394 33.666 94.4739 34.3147C95.1131 34.9586 95.4327 35.8725 95.4327 37.0562V44.3928H92.4142V37.6528C92.4142 37.0467 92.2533 36.5922 91.9313 36.2891C91.6093 35.9861 91.2069 35.8346 90.7239 35.8346C90.1747 35.8346 89.7462 36.0098 89.4384 36.3602C89.1306 36.7058 88.9767 37.1627 88.9767 37.7309V44.3928H86.0435V37.5888C86.0435 37.0538 85.8896 36.6277 85.5819 36.3104C85.2788 35.9932 84.8787 35.8346 84.3816 35.8346C84.0454 35.8346 83.7424 35.9198 83.4725 36.0903C83.2073 36.256 82.9966 36.4904 82.8404 36.7934C82.6841 37.0917 82.606 37.4421 82.606 37.8445V44.3928H79.5804ZM97.8226 44.3928V33.4837H100.848V44.3928H97.8226ZM99.3425 32.0775C98.8927 32.0775 98.5068 31.9283 98.1848 31.63C97.8676 31.327 97.709 30.9648 97.709 30.5434C97.709 30.1267 97.8676 29.7692 98.1848 29.4709C98.5068 29.1679 98.8927 29.0164 99.3425 29.0164C99.7923 29.0164 100.176 29.1679 100.493 29.4709C100.815 29.7692 100.976 30.1267 100.976 30.5434C100.976 30.9648 100.815 31.327 100.493 31.63C100.176 31.9283 99.7923 32.0775 99.3425 32.0775ZM108.243 44.6059C107.121 44.6059 106.155 44.3786 105.346 43.9241C104.541 43.4648 103.921 42.8161 103.485 41.978C103.049 41.1352 102.831 40.1386 102.831 38.988C102.831 37.8658 103.049 36.881 103.485 36.0334C103.921 35.1859 104.534 34.5254 105.324 34.0519C106.12 33.5784 107.053 33.3417 108.123 33.3417C108.842 33.3417 109.512 33.4577 110.133 33.6897C110.758 33.917 111.302 34.2602 111.766 34.7195C112.235 35.1788 112.599 35.7565 112.86 36.4525C113.12 37.1438 113.251 37.9534 113.251 38.8815V39.7124H104.039V37.8374H110.403C110.403 37.4018 110.308 37.0159 110.118 36.6798C109.929 36.3436 109.666 36.0808 109.33 35.8914C108.999 35.6973 108.613 35.6002 108.172 35.6002C107.713 35.6002 107.306 35.7067 106.951 35.9198C106.6 36.1281 106.326 36.4099 106.127 36.765C105.928 37.1154 105.826 37.506 105.822 37.9369V39.7195C105.822 40.2593 105.921 40.7257 106.12 41.1187C106.323 41.5117 106.61 41.8147 106.979 42.0278C107.349 42.2408 107.787 42.3474 108.293 42.3474C108.629 42.3474 108.937 42.3 109.216 42.2053C109.496 42.1106 109.735 41.9686 109.934 41.7792C110.133 41.5898 110.284 41.3578 110.388 41.0832L113.187 41.2678C113.045 41.9402 112.753 42.5273 112.313 43.0292C111.877 43.5263 111.314 43.9146 110.623 44.194C109.936 44.4686 109.143 44.6059 108.243 44.6059ZM124.302 36.5945L121.532 36.765C121.484 36.5282 121.383 36.3152 121.226 36.1258C121.07 35.9316 120.864 35.7778 120.608 35.6641C120.358 35.5458 120.057 35.4866 119.706 35.4866C119.238 35.4866 118.842 35.586 118.52 35.7849C118.198 35.979 118.037 36.2394 118.037 36.5661C118.037 36.8265 118.142 37.0467 118.35 37.2266C118.558 37.4066 118.916 37.551 119.422 37.6599L121.397 38.0576C122.457 38.2754 123.248 38.6258 123.769 39.1087C124.29 39.5917 124.55 40.2262 124.55 41.0121C124.55 41.7271 124.34 42.3545 123.918 42.8942C123.501 43.434 122.929 43.8554 122.199 44.1584C121.475 44.4567 120.639 44.6059 119.692 44.6059C118.248 44.6059 117.098 44.3052 116.241 43.7039C115.388 43.0978 114.889 42.274 114.742 41.2323L117.718 41.0761C117.808 41.5164 118.026 41.8526 118.371 42.0846C118.717 42.3119 119.16 42.4255 119.699 42.4255C120.23 42.4255 120.656 42.3237 120.978 42.1201C121.305 41.9118 121.47 41.6442 121.475 41.3175C121.47 41.0429 121.354 40.818 121.127 40.6428C120.9 40.4629 120.549 40.3256 120.076 40.2309L118.187 39.8545C117.121 39.6414 116.328 39.2721 115.807 38.7465C115.291 38.2209 115.033 37.551 115.033 36.7366C115.033 36.0358 115.223 35.4321 115.601 34.9255C115.985 34.4189 116.522 34.0282 117.214 33.7536C117.91 33.479 118.724 33.3417 119.657 33.3417C121.035 33.3417 122.119 33.6329 122.91 34.2153C123.705 34.7977 124.169 35.5907 124.302 36.5945Z" fill="black"/>
<path d="M44.2585 57.5951V48.8678H46.1037V52.7158H46.2188L49.3594 48.8678H51.571L48.3324 52.7755L51.6094 57.5951H49.402L47.0114 54.007L46.1037 55.115V57.5951H44.2585ZM52.908 57.5951V51.0496H54.7234V57.5951H52.908ZM53.82 50.2059C53.5501 50.2059 53.3185 50.1164 53.1254 49.9374C52.935 49.7556 52.8398 49.5383 52.8398 49.2854C52.8398 49.0354 52.935 48.8209 53.1254 48.642C53.3185 48.4601 53.5501 48.3692 53.82 48.3692C54.0898 48.3692 54.32 48.4601 54.5103 48.642C54.7035 48.8209 54.8001 49.0354 54.8001 49.2854C54.8001 49.5383 54.7035 49.7556 54.5103 49.9374C54.32 50.1164 54.0898 50.2059 53.82 50.2059ZM59.6591 51.0496V52.4133H55.7173V51.0496H59.6591ZM56.6122 49.4815H58.4276V55.5837C58.4276 55.7513 58.4531 55.882 58.5043 55.9758C58.5554 56.0667 58.6264 56.1306 58.7173 56.1675C58.8111 56.2045 58.919 56.2229 59.0412 56.2229C59.1264 56.2229 59.2116 56.2158 59.2969 56.2016C59.3821 56.1846 59.4474 56.1718 59.4929 56.1633L59.7784 57.5141C59.6875 57.5425 59.5597 57.5752 59.3949 57.6121C59.2301 57.6519 59.0298 57.6761 58.794 57.6846C58.3565 57.7016 57.973 57.6434 57.6435 57.5099C57.3168 57.3763 57.0625 57.169 56.8807 56.8877C56.6989 56.6065 56.6094 56.2513 56.6122 55.8224V49.4815ZM63.7287 57.7229C63.0582 57.7229 62.4815 57.5809 61.9986 57.2968C61.5185 57.0099 61.1491 56.6121 60.8906 56.1036C60.6349 55.5951 60.5071 55.0099 60.5071 54.3479C60.5071 53.6775 60.6364 53.0894 60.8949 52.5837C61.1563 52.0752 61.527 51.6789 62.0071 51.3948C62.4872 51.1079 63.0582 50.9644 63.7202 50.9644C64.2912 50.9644 64.7912 51.0681 65.2202 51.2755C65.6491 51.4829 65.9886 51.7741 66.2386 52.1491C66.4886 52.5241 66.6264 52.9644 66.652 53.4701H64.9389C64.8906 53.1434 64.7628 52.8806 64.5554 52.6817C64.3509 52.48 64.0824 52.3792 63.75 52.3792C63.4688 52.3792 63.223 52.4559 63.0128 52.6093C62.8054 52.7599 62.6435 52.98 62.527 53.2698C62.4105 53.5596 62.3523 53.9104 62.3523 54.3224C62.3523 54.74 62.4091 55.0951 62.5227 55.3877C62.6392 55.6803 62.8026 55.9033 63.0128 56.0567C63.223 56.2101 63.4688 56.2869 63.75 56.2869C63.9574 56.2869 64.1435 56.2442 64.3082 56.159C64.4759 56.0738 64.6136 55.9502 64.7216 55.7883C64.8324 55.6235 64.9048 55.4261 64.9389 55.1959H66.652C66.6236 55.6959 66.4872 56.1363 66.2429 56.517C66.0014 56.8948 65.6676 57.1903 65.2415 57.4033C64.8153 57.6164 64.3111 57.7229 63.7287 57.7229ZM69.6296 53.811V57.5951H67.8143V48.8678H69.5785V52.2045H69.6552C69.8029 51.8181 70.0415 51.5155 70.3711 51.2968C70.7006 51.0752 71.114 50.9644 71.6112 50.9644C72.0657 50.9644 72.462 51.0638 72.8001 51.2627C73.141 51.4587 73.4052 51.7414 73.5927 52.1107C73.783 52.4772 73.8768 52.9161 73.8739 53.4275V57.5951H72.0586V53.7513C72.0614 53.3479 71.9592 53.034 71.7518 52.8096C71.5472 52.5851 71.2603 52.4729 70.891 52.4729C70.6438 52.4729 70.4251 52.5255 70.2347 52.6306C70.0472 52.7357 69.8995 52.8891 69.7915 53.0908C69.6864 53.2897 69.6325 53.5298 69.6296 53.811ZM78.2855 57.7229C77.6122 57.7229 77.0327 57.5866 76.5469 57.3138C76.0639 57.0383 75.6918 56.6491 75.4304 56.1462C75.169 55.6405 75.0384 55.0425 75.0384 54.3522C75.0384 53.6789 75.169 53.088 75.4304 52.5795C75.6918 52.0709 76.0597 51.6746 76.5341 51.3905C77.0114 51.1065 77.571 50.9644 78.2131 50.9644C78.6449 50.9644 79.0469 51.034 79.419 51.1732C79.794 51.3096 80.1207 51.5155 80.3991 51.7911C80.6804 52.0667 80.8991 52.4133 81.0554 52.8309C81.2116 53.2457 81.2898 53.7315 81.2898 54.2883V54.7869H75.7628V53.6619H79.581C79.581 53.4005 79.5241 53.169 79.4105 52.9673C79.2969 52.7655 79.1392 52.6079 78.9375 52.4942C78.7386 52.3778 78.5071 52.3195 78.2429 52.3195C77.9673 52.3195 77.723 52.3834 77.5099 52.5113C77.2997 52.6363 77.1349 52.8053 77.0156 53.0184C76.8963 53.2286 76.8352 53.463 76.8324 53.7215V54.7911C76.8324 55.115 76.892 55.3948 77.0114 55.6306C77.1335 55.8664 77.3054 56.0482 77.527 56.1761C77.7486 56.3039 78.0114 56.3678 78.3153 56.3678C78.517 56.3678 78.7017 56.3394 78.8693 56.2826C79.0369 56.2258 79.1804 56.1405 79.2997 56.0269C79.419 55.9133 79.5099 55.7741 79.5724 55.6093L81.2514 55.7201C81.1662 56.1235 80.9915 56.4758 80.7273 56.7769C80.4659 57.0752 80.1278 57.3082 79.7131 57.4758C79.3011 57.6405 78.8253 57.7229 78.2855 57.7229ZM84.2898 53.811V57.5951H82.4744V51.0496H84.2045V52.2045H84.2812C84.4261 51.8238 84.669 51.5226 85.0099 51.3011C85.3509 51.0766 85.7642 50.9644 86.25 50.9644C86.7045 50.9644 87.1009 51.0638 87.4389 51.2627C87.777 51.4616 88.0398 51.7457 88.2273 52.115C88.4148 52.4815 88.5085 52.919 88.5085 53.4275V57.5951H86.6932V53.7513C86.696 53.3508 86.5938 53.0383 86.3864 52.8138C86.179 52.5866 85.8935 52.4729 85.5298 52.4729C85.2855 52.4729 85.0696 52.5255 84.8821 52.6306C84.6974 52.7357 84.5526 52.8891 84.4474 53.0908C84.3452 53.2897 84.2926 53.5298 84.2898 53.811Z" fill="#A0A0A0"/>
<path d="M8.50846 46.0951H124.492C124.228 53.8717 117.841 60.0951 110 60.0951H23C15.1592 60.0951 8.77198 53.8717 8.50846 46.0951Z" stroke="black"/>
</svg>
